<svg width="34" height="34" viewBox="0 0 34 34" fill="none" xmlns="http://www.w3.org/2000/svg">
<g clip-path="url(#clip0_27_10)">
<path d="M29.1985 16.3333L5.72176 0.142464C5.47323 -0.0283494 5.15103 -0.0461593 4.8855 0.0922725C4.61916 0.232323 4.45239 0.507568 4.45239 0.808718V33.1904C4.45239 33.4916 4.61916 33.7676 4.8855 33.9077C5.00369 33.9692 5.13322 34 5.26194 34C5.42303 34 5.58332 33.9514 5.72176 33.8567L29.1985 17.6658C29.4179 17.5145 29.5482 17.2659 29.5482 16.9996C29.5482 16.7332 29.4171 16.4847 29.1985 16.3333Z" fill="white"/>
<path d="M29.4832 15.9223L29.4824 15.9217L6.00562 -0.269143L6.00496 -0.269596C5.6026 -0.54614 5.08243 -0.574269 4.65435 -0.351092L4.65435 -0.351095L4.65279 -0.350274C4.22254 -0.124034 3.95239 0.321343 3.95239 0.808718V33.1904C3.95239 33.6773 4.22205 34.1237 4.65279 34.3502L4.65464 34.3512C4.84497 34.4503 5.0538 34.5 5.26194 34.5C5.52382 34.5 5.78252 34.421 6.0041 34.2693L6.00562 34.2683L29.4824 18.0774L29.4825 18.0774C29.8372 17.8326 30.0482 17.4302 30.0482 16.9996C30.0482 16.5681 29.8357 16.1665 29.4832 15.9223Z" stroke="black" stroke-opacity="0.5"/>
</g>
<defs>
<clipPath id="clip0_27_10">
<rect width="34" height="34" fill="white"/>
</clipPath>
</defs>
</svg>
